<svg width="13" height="12" viewBox="0 0 13 12" fill="none" xmlns="http://www.w3.org/2000/svg">
<path d="M12.3453 4.4149H8.25966L7.01874 0.709793C6.98688 0.623525 6.92934 0.549094 6.85389 0.496524C6.77843 0.443954 6.68868 0.415771 6.59671 0.415771C6.50475 0.415771 6.415 0.443954 6.33954 0.496524C6.26409 0.549094 6.20655 0.623525 6.17469 0.709793L4.93308 4.4149H0.817505C0.699739 4.41526 0.5869 4.4622 0.503627 4.54548C0.420354 4.62875 0.373413 4.74159 0.373055 4.85935C0.372882 4.8845 0.375618 4.90959 0.381209 4.93411C0.387097 4.99695 0.406852 5.05771 0.439051 5.112C0.471251 5.1663 0.515092 5.21277 0.567417 5.24808L3.92526 7.6144L2.6388 11.3603C2.60835 11.4491 2.60674 11.5453 2.6342 11.6352C2.66165 11.725 2.71678 11.8038 2.79171 11.8605C2.86113 11.9227 2.94891 11.9606 3.04179 11.9685C3.14189 11.9615 3.23809 11.9269 3.31974 11.8686L6.594 9.53287L9.87097 11.8686C9.95203 11.9281 10.0486 11.9627 10.1489 11.9685C10.2427 11.9629 10.3315 11.9244 10.3997 11.8598C10.4753 11.8037 10.5309 11.7249 10.5584 11.6349C10.586 11.5448 10.5839 11.4484 10.5526 11.3596L9.26138 7.61304L12.5914 5.22497L12.6722 5.15701C12.7549 5.0789 12.8061 4.97328 12.8163 4.86003C12.8098 4.7396 12.7574 4.62625 12.6697 4.5434C12.5821 4.46056 12.4659 4.41456 12.3453 4.4149Z" fill="#FFD12F"/>
</svg>
